<mxfile host="app.diagrams.net" agent="Mozilla/5.0 (Windows NT 10.0; Win64; x64) AppleWebKit/537.36 (KHTML, like Gecko) Chrome/134.0.0.0 Safari/537.36 Edg/134.0.0.0" version="26.1.1">
  <diagram name="依赖倒置" id="0m99TzgLbdnCNUlny6uD">
    <mxGraphModel dx="868" dy="478" grid="1" gridSize="10" guides="1" tooltips="1" connect="1" arrows="1" fold="1" page="1" pageScale="1" pageWidth="827" pageHeight="1169" math="0" shadow="0">
      <root>
        <mxCell id="0" />
        <mxCell id="1" parent="0" />
        <mxCell id="eldFSmhfL-vzOaCkPceo-44" value="" style="rounded=0;whiteSpace=wrap;html=1;fillColor=#ffe6cc;strokeColor=#d79b00;" vertex="1" parent="1">
          <mxGeometry x="560" y="330" width="170" height="120" as="geometry" />
        </mxCell>
        <mxCell id="eldFSmhfL-vzOaCkPceo-38" value="" style="rounded=0;whiteSpace=wrap;html=1;fillColor=#dae8fc;strokeColor=#6c8ebf;" vertex="1" parent="1">
          <mxGeometry x="200" y="240" width="330" height="330" as="geometry" />
        </mxCell>
        <mxCell id="eldFSmhfL-vzOaCkPceo-20" value="" style="rounded=0;whiteSpace=wrap;html=1;fillColor=#d5e8d4;strokeColor=#82b366;" vertex="1" parent="1">
          <mxGeometry x="70" y="80" width="380" height="120" as="geometry" />
        </mxCell>
        <mxCell id="eldFSmhfL-vzOaCkPceo-1" value="sys" style="rounded=0;whiteSpace=wrap;html=1;fontSize=18;" vertex="1" parent="1">
          <mxGeometry x="80" y="120" width="120" height="60" as="geometry" />
        </mxCell>
        <mxCell id="eldFSmhfL-vzOaCkPceo-2" value="修改前" style="text;html=1;align=center;verticalAlign=middle;whiteSpace=wrap;rounded=0;fontSize=19;" vertex="1" parent="1">
          <mxGeometry x="70" y="10" width="60" height="30" as="geometry" />
        </mxCell>
        <mxCell id="eldFSmhfL-vzOaCkPceo-3" value="sensor" style="rounded=0;whiteSpace=wrap;html=1;fontSize=18;" vertex="1" parent="1">
          <mxGeometry x="310" y="120" width="120" height="60" as="geometry" />
        </mxCell>
        <mxCell id="eldFSmhfL-vzOaCkPceo-5" value="依赖倒置" style="text;html=1;align=center;verticalAlign=middle;whiteSpace=wrap;rounded=0;fontSize=19;" vertex="1" parent="1">
          <mxGeometry x="70" y="260" width="80" height="30" as="geometry" />
        </mxCell>
        <mxCell id="eldFSmhfL-vzOaCkPceo-7" value="sensor_cfg" style="rounded=0;whiteSpace=wrap;html=1;fontSize=18;" vertex="1" parent="1">
          <mxGeometry x="310" y="330" width="120" height="60" as="geometry" />
        </mxCell>
        <mxCell id="eldFSmhfL-vzOaCkPceo-9" value="process" style="endArrow=open;endSize=12;dashed=1;html=1;rounded=0;entryX=0;entryY=0.5;entryDx=0;entryDy=0;" edge="1" parent="1" target="eldFSmhfL-vzOaCkPceo-3">
          <mxGeometry width="160" relative="1" as="geometry">
            <mxPoint x="200" y="149.5" as="sourcePoint" />
            <mxPoint x="300" y="150" as="targetPoint" />
          </mxGeometry>
        </mxCell>
        <mxCell id="eldFSmhfL-vzOaCkPceo-10" value="update" style="endArrow=open;endSize=12;dashed=1;html=1;rounded=0;entryX=0;entryY=0.5;entryDx=0;entryDy=0;exitX=1;exitY=0.5;exitDx=0;exitDy=0;" edge="1" parent="1" source="eldFSmhfL-vzOaCkPceo-6">
          <mxGeometry x="0.0031" width="160" relative="1" as="geometry">
            <mxPoint x="200" y="359.65999999999997" as="sourcePoint" />
            <mxPoint x="310" y="360.15999999999997" as="targetPoint" />
            <mxPoint as="offset" />
          </mxGeometry>
        </mxCell>
        <mxCell id="eldFSmhfL-vzOaCkPceo-11" value="sensor" style="rounded=0;whiteSpace=wrap;html=1;fontSize=18;" vertex="1" parent="1">
          <mxGeometry x="580" y="370" width="120" height="60" as="geometry" />
        </mxCell>
        <mxCell id="eldFSmhfL-vzOaCkPceo-12" value="register" style="endArrow=open;endSize=12;dashed=1;html=1;rounded=0;exitX=0;exitY=0.5;exitDx=0;exitDy=0;entryX=1;entryY=0.5;entryDx=0;entryDy=0;" edge="1" parent="1" source="eldFSmhfL-vzOaCkPceo-11" target="eldFSmhfL-vzOaCkPceo-7">
          <mxGeometry width="160" relative="1" as="geometry">
            <mxPoint x="540" y="380" as="sourcePoint" />
            <mxPoint x="700" y="380" as="targetPoint" />
          </mxGeometry>
        </mxCell>
        <mxCell id="eldFSmhfL-vzOaCkPceo-13" value="C/C++使用__attribute__((constructor))特性，完成运行前注册" style="text;html=1;align=center;verticalAlign=middle;whiteSpace=wrap;rounded=0;" vertex="1" parent="1">
          <mxGeometry x="610" y="270" width="210" height="30" as="geometry" />
        </mxCell>
        <mxCell id="eldFSmhfL-vzOaCkPceo-18" value="register" style="shape=process;whiteSpace=wrap;html=1;backgroundOutline=1;" vertex="1" parent="1">
          <mxGeometry x="390" y="460" width="120" height="60" as="geometry" />
        </mxCell>
        <mxCell id="eldFSmhfL-vzOaCkPceo-19" value="" style="endArrow=block;dashed=1;endFill=0;endSize=12;html=1;rounded=0;exitX=0.5;exitY=1;exitDx=0;exitDy=0;entryX=0.5;entryY=0;entryDx=0;entryDy=0;" edge="1" parent="1" source="eldFSmhfL-vzOaCkPceo-7" target="eldFSmhfL-vzOaCkPceo-18">
          <mxGeometry width="160" relative="1" as="geometry">
            <mxPoint x="240" y="420" as="sourcePoint" />
            <mxPoint x="400" y="420" as="targetPoint" />
          </mxGeometry>
        </mxCell>
        <mxCell id="eldFSmhfL-vzOaCkPceo-21" value="app.exe" style="text;html=1;align=center;verticalAlign=middle;whiteSpace=wrap;rounded=0;" vertex="1" parent="1">
          <mxGeometry x="70" y="80" width="60" height="30" as="geometry" />
        </mxCell>
        <mxCell id="eldFSmhfL-vzOaCkPceo-22" value="loadlibrary" style="shape=process;whiteSpace=wrap;html=1;backgroundOutline=1;" vertex="1" parent="1">
          <mxGeometry x="220" y="460" width="120" height="60" as="geometry" />
        </mxCell>
        <mxCell id="eldFSmhfL-vzOaCkPceo-23" value="" style="endArrow=block;dashed=1;endFill=0;endSize=12;html=1;rounded=0;entryX=0.5;entryY=0;entryDx=0;entryDy=0;" edge="1" parent="1" target="eldFSmhfL-vzOaCkPceo-22">
          <mxGeometry width="160" relative="1" as="geometry">
            <mxPoint x="370" y="390" as="sourcePoint" />
            <mxPoint x="360" y="460" as="targetPoint" />
          </mxGeometry>
        </mxCell>
        <mxCell id="eldFSmhfL-vzOaCkPceo-24" value="sensor.cfg" style="shape=document;whiteSpace=wrap;html=1;boundedLbl=1;" vertex="1" parent="1">
          <mxGeometry x="310" y="585" width="120" height="55" as="geometry" />
        </mxCell>
        <mxCell id="eldFSmhfL-vzOaCkPceo-25" value="read" style="endArrow=block;endFill=1;html=1;edgeStyle=orthogonalEdgeStyle;align=left;verticalAlign=top;rounded=0;entryX=0.477;entryY=0.031;entryDx=0;entryDy=0;entryPerimeter=0;exitX=0.5;exitY=1;exitDx=0;exitDy=0;" edge="1" parent="1" source="eldFSmhfL-vzOaCkPceo-22" target="eldFSmhfL-vzOaCkPceo-24">
          <mxGeometry x="-1" relative="1" as="geometry">
            <mxPoint x="210" y="560" as="sourcePoint" />
            <mxPoint x="360" y="580" as="targetPoint" />
          </mxGeometry>
        </mxCell>
        <mxCell id="eldFSmhfL-vzOaCkPceo-26" value="1" style="edgeLabel;resizable=0;html=1;align=left;verticalAlign=bottom;" connectable="0" vertex="1" parent="eldFSmhfL-vzOaCkPceo-25">
          <mxGeometry x="-1" relative="1" as="geometry" />
        </mxCell>
        <mxCell id="eldFSmhfL-vzOaCkPceo-27" value="C/C++使用LoadLibrary&lt;div&gt;动态加载&lt;/div&gt;" style="text;html=1;align=center;verticalAlign=middle;whiteSpace=wrap;rounded=0;" vertex="1" parent="1">
          <mxGeometry x="30" y="480" width="170" height="30" as="geometry" />
        </mxCell>
        <mxCell id="eldFSmhfL-vzOaCkPceo-30" value="" style="group" vertex="1" connectable="0" parent="1">
          <mxGeometry x="30" y="300" width="150" height="110" as="geometry" />
        </mxCell>
        <mxCell id="eldFSmhfL-vzOaCkPceo-28" value="" style="rounded=0;whiteSpace=wrap;html=1;fillColor=#d5e8d4;strokeColor=#82b366;" vertex="1" parent="eldFSmhfL-vzOaCkPceo-30">
          <mxGeometry width="150" height="110" as="geometry" />
        </mxCell>
        <mxCell id="eldFSmhfL-vzOaCkPceo-6" value="sys" style="rounded=0;whiteSpace=wrap;html=1;fontSize=18;" vertex="1" parent="eldFSmhfL-vzOaCkPceo-30">
          <mxGeometry x="10" y="30" width="120" height="60" as="geometry" />
        </mxCell>
        <mxCell id="eldFSmhfL-vzOaCkPceo-29" value="app.exe" style="text;html=1;align=center;verticalAlign=middle;whiteSpace=wrap;rounded=0;" vertex="1" parent="eldFSmhfL-vzOaCkPceo-30">
          <mxGeometry width="60" height="30" as="geometry" />
        </mxCell>
        <mxCell id="eldFSmhfL-vzOaCkPceo-43" value="cfg.dll" style="text;html=1;align=center;verticalAlign=middle;whiteSpace=wrap;rounded=0;" vertex="1" parent="1">
          <mxGeometry x="200" y="240" width="60" height="30" as="geometry" />
        </mxCell>
        <mxCell id="eldFSmhfL-vzOaCkPceo-45" value="sensor_hal" style="rounded=0;whiteSpace=wrap;html=1;fontSize=18;" vertex="1" parent="1">
          <mxGeometry x="310" y="250" width="120" height="60" as="geometry" />
        </mxCell>
        <mxCell id="eldFSmhfL-vzOaCkPceo-46" value="public process" style="endArrow=open;endSize=12;dashed=1;html=1;rounded=0;exitX=0;exitY=0.5;exitDx=0;exitDy=0;entryX=1;entryY=0.5;entryDx=0;entryDy=0;" edge="1" parent="1" source="eldFSmhfL-vzOaCkPceo-11">
          <mxGeometry width="160" relative="1" as="geometry">
            <mxPoint x="580" y="320" as="sourcePoint" />
            <mxPoint x="430" y="280" as="targetPoint" />
          </mxGeometry>
        </mxCell>
        <mxCell id="eldFSmhfL-vzOaCkPceo-47" value="sensor.dll" style="text;html=1;align=center;verticalAlign=middle;whiteSpace=wrap;rounded=0;" vertex="1" parent="1">
          <mxGeometry x="560" y="330" width="60" height="30" as="geometry" />
        </mxCell>
      </root>
    </mxGraphModel>
  </diagram>
</mxfile>
